<svg id="visual" viewBox="0 0 900 450" width="900" height="450" xmlns="http://www.w3.org/2000/svg" xmlns:xlink="http://www.w3.org/1999/xlink" version="1.1"><rect x="0" y="0" width="900" height="450" fill="#001220"></rect><defs><linearGradient id="grad1_0" x1="50%" y1="0%" x2="100%" y2="100%"><stop offset="10%" stop-color="#fbae3c" stop-opacity="1"></stop><stop offset="90%" stop-color="#fbae3c" stop-opacity="1"></stop></linearGradient></defs><defs><linearGradient id="grad1_1" x1="50%" y1="0%" x2="100%" y2="100%"><stop offset="10%" stop-color="#fbae3c" stop-opacity="1"></stop><stop offset="90%" stop-color="#96446e" stop-opacity="1"></stop></linearGradient></defs><defs><linearGradient id="grad1_2" x1="50%" y1="0%" x2="100%" y2="100%"><stop offset="10%" stop-color="#001220" stop-opacity="1"></stop><stop offset="90%" stop-color="#96446e" stop-opacity="1"></stop></linearGradient></defs><defs><linearGradient id="grad2_0" x1="0%" y1="0%" x2="50%" y2="100%"><stop offset="10%" stop-color="#fbae3c" stop-opacity="1"></stop><stop offset="90%" stop-color="#fbae3c" stop-opacity="1"></stop></linearGradient></defs><defs><linearGradient id="grad2_1" x1="0%" y1="0%" x2="50%" y2="100%"><stop offset="10%" stop-color="#96446e" stop-opacity="1"></stop><stop offset="90%" stop-color="#fbae3c" stop-opacity="1"></stop></linearGradient></defs><defs><linearGradient id="grad2_2" x1="0%" y1="0%" x2="50%" y2="100%"><stop offset="10%" stop-color="#96446e" stop-opacity="1"></stop><stop offset="90%" stop-color="#001220" stop-opacity="1"></stop></linearGradient></defs><g transform="translate(900, 0)"><path d="M0 202.5C-20.9 183 -41.8 163.4 -63.1 152.4C-84.4 141.4 -106.1 139 -128.7 128.7C-151.2 118.4 -174.6 100.2 -187.1 77.5C-199.5 54.7 -201 27.4 -202.5 0L0 0Z" fill="#3d3056"></path><path d="M0 135C-13.9 122 -27.9 109 -42.1 101.6C-56.3 94.3 -70.8 92.7 -85.8 85.8C-100.8 78.9 -116.4 66.8 -124.7 51.7C-133 36.5 -134 18.2 -135 0L0 0Z" fill="#e1685e"></path><path d="M0 67.5C-7 61 -13.9 54.5 -21 50.8C-28.1 47.1 -35.4 46.3 -42.9 42.9C-50.4 39.5 -58.2 33.4 -62.4 25.8C-66.5 18.2 -67 9.1 -67.5 0L0 0Z" fill="#fbae3c"></path></g><g transform="translate(0, 450)"><path d="M0 -202.5C28.7 -201.7 57.3 -200.8 77.5 -187.1C97.7 -173.3 109.4 -146.7 127.3 -127.3C145.2 -107.9 169.4 -95.8 182.9 -75.8C196.5 -55.8 199.5 -27.9 202.5 0L0 0Z" fill="#3d3056"></path><path d="M0 -135C19.1 -134.4 38.2 -133.9 51.7 -124.7C65.1 -115.6 72.9 -97.8 84.9 -84.9C96.8 -71.9 112.9 -63.8 122 -50.5C131 -37.2 133 -18.6 135 0L0 0Z" fill="#e1685e"></path><path d="M0 -67.5C9.6 -67.2 19.1 -66.9 25.8 -62.4C32.6 -57.8 36.5 -48.9 42.4 -42.4C48.4 -36 56.5 -31.9 61 -25.3C65.5 -18.6 66.5 -9.3 67.5 0L0 0Z" fill="#fbae3c"></path></g></svg>